<?xml version="1.0" encoding="utf-8"?>
<!-- Generator: Adobe Illustrator 26.0.2, SVG Export Plug-In . SVG Version: 6.00 Build 0)  -->
<svg version="1.1" id="Capa_1" xmlns="http://www.w3.org/2000/svg" xmlns:xlink="http://www.w3.org/1999/xlink" x="0px" y="0px"
	 viewBox="0 0 415.4 365.3" style="enable-background:new 0 0 415.4 365.3;" xml:space="preserve">
<style type="text/css">
	.st0{fill:#FFFFFF;}
	.st1{opacity:0.7;}
	.st2{fill:#F1F1F1;}
	.st3{opacity:0.75;}
	.st4{opacity:0.46;}
	.st5{opacity:0.9;}
</style>
<g>
	<path class="st0" d="M45.2,327.8v-19.7h-6.3v-4.5h17.6v4.5h-6.3v19.7H45.2z"/>
	<path class="st0" d="M69,310h4.9v17.8h-4.1l-0.7-2.6c-1.1,1.9-3,3-5.6,3c-3.7,0-7.1-2.3-7.1-7.8V310h4.8v9.6c0,3.4,1.9,4.4,3.8,4.4
		c2.3,0,4-1.5,4-4.5V310z"/>
	<path class="st0" d="M83.4,322.1l4.7-0.2c0.1,1.5,1.6,2.5,3.6,2.5c1.6,0,2.7-0.6,2.7-1.6c0-3-10.3-1.1-10.3-7.6
		c0-3.5,3.2-5.5,7.1-5.5c4.4,0,7.4,2.6,7.4,5.7l-4.6,0.1c-0.2-1.2-1.2-2.2-2.9-2.2c-1.3,0-2.4,0.5-2.4,1.5c0,2.9,10.5,0.9,10.5,7.7
		c0,3.6-3.2,5.6-7.7,5.6C87.3,328.2,83.5,326.4,83.4,322.1z"/>
	<path class="st0" d="M114.2,310h4.9v17.8h-4.1l-0.7-2.6c-1.1,1.9-3,3-5.6,3c-3.7,0-7.1-2.3-7.1-7.8V310h4.8v9.6
		c0,3.4,1.9,4.4,3.8,4.4c2.3,0,4-1.5,4-4.5V310z"/>
	<path class="st0" d="M122.3,305.5c0-1.5,1.2-2.7,2.7-2.7c1.5,0,2.7,1.2,2.7,2.7c0,1.5-1.2,2.7-2.7,2.7
		C123.5,308.3,122.3,307,122.3,305.5z M127.4,310v17.8h-4.8V310H127.4z"/>
	<path class="st0" d="M141.8,310v3.8h-4.1v14h-4.8v-14H130V310h2.9v-5.2h4.8v5.2H141.8z"/>
	<path class="st0" d="M161,320.4h-13.5c0.2,2.2,2.2,3.7,4.7,3.7c2.1,0,3.6-1,4.3-2.4l4.2,0.4c-1,3.4-4.4,5.9-8.5,5.9
		c-5.5,0-9.5-3.7-9.5-9.2c0-5.3,3.8-9.3,9.2-9.3C157.3,309.7,161.3,313.3,161,320.4z M147.5,317.1h8.6c-0.1-2.1-1.8-3.5-4.2-3.5
		C149.5,313.5,147.7,315,147.5,317.1z"/>
	<path class="st0" d="M184.7,302.3h4.8v25.5h-4.8v-3.1c-0.9,2.1-3.2,3.4-6.2,3.4c-5.4,0-8.6-4.2-8.6-9.3c0-5.3,3.3-9.2,8.8-9.2
		c2.2,0,4.6,1,5.9,3V302.3z M184.7,318.9c0-2.8-2-4.9-4.9-4.9c-2.9,0-5,2-5,4.9c0,2.9,2.1,4.9,5,4.9
		C182.7,323.8,184.7,321.8,184.7,318.9z"/>
	<path class="st0" d="M210.7,320.4h-13.5c0.2,2.2,2.2,3.7,4.7,3.7c2.1,0,3.6-1,4.3-2.4l4.2,0.4c-1,3.4-4.4,5.9-8.5,5.9
		c-5.5,0-9.5-3.7-9.5-9.2c0-5.3,3.8-9.3,9.2-9.3C206.9,309.7,210.9,313.3,210.7,320.4z M197.2,317.1h8.6c-0.1-2.1-1.8-3.5-4.2-3.5
		C199.1,313.5,197.3,315,197.2,317.1z"/>
	<path class="st0" d="M219.8,315.7c0-7,5.4-12.4,12.1-12.4c3.8,0,6.2,1.3,7,2v4.8c-0.6-0.7-2.8-2.3-6.4-2.3c-4.2,0-7.8,3.3-7.8,7.9
		c0,4.7,3.5,7.9,7.8,7.9c3.6,0,5.8-1.6,6.4-2.3v4.8c-0.9,0.7-3.2,2-7,2C225.2,328.2,219.8,322.8,219.8,315.7z"/>
	<path class="st0" d="M241.6,318.9c0-5.3,4-9.2,9.6-9.2c5.6,0,9.6,3.9,9.6,9.2c0,5.4-4,9.2-9.6,9.2
		C245.6,328.2,241.6,324.3,241.6,318.9z M256.1,318.9c0-2.9-2.1-4.9-4.9-4.9c-2.8,0-4.9,2-4.9,4.9c0,2.8,2.1,4.9,4.9,4.9
		C254,323.8,256.1,321.7,256.1,318.9z"/>
	<path class="st0" d="M283.1,319c0,5.3-3.3,9.2-8.8,9.2c-2.2,0-4.6-1-5.9-3v2.6h-4.8v-25.5h4.8v10.8c0.9-2.1,3.2-3.4,6.2-3.4
		C279.9,309.7,283.1,313.9,283.1,319z M278.2,318.9c0-2.9-2.1-4.9-5-4.9c-2.9,0-4.9,2-4.9,4.9c0,2.8,2,4.9,4.9,4.9
		C276.2,323.8,278.2,321.8,278.2,318.9z"/>
	<path class="st0" d="M290.6,312.3c0.9-1.6,2.5-2.7,5.3-2.3l0,4.1c-3.3-0.4-5.2,0.7-5.2,3.5v10.2h-4.8V310h3.9L290.6,312.3z"/>
	<path class="st0" d="M312.7,310h4.1v17.8h-4.9v-3.1c-0.9,2.1-3.2,3.4-6.2,3.4c-5.4,0-8.6-4.2-8.6-9.3c0-5.3,3.3-9.2,8.8-9.2
		c2.2,0,4.6,1,5.9,3v0.1L312.7,310z M311.9,318.9c0-2.8-2-4.9-4.9-4.9c-2.9,0-5,2-5,4.9c0,2.9,2.1,4.9,5,4.9
		C309.8,323.8,311.9,321.8,311.9,318.9z"/>
	<path class="st0" d="M337.9,317.4v10.4H333v-9.6c0-3.4-1.9-4.4-3.8-4.4c-2.3,0-4,1.5-4,4.6v9.5h-4.9V310h4.1l0.7,2.5
		c1.1-1.8,2.9-2.9,5.5-2.9C334.4,309.7,337.9,312,337.9,317.4z"/>
	<path class="st0" d="M355.5,310l-7.9,13.7h7.4v4.1h-15l7.9-13.7h-7.5V310H355.5z"/>
	<path class="st0" d="M372.3,310h4.1v17.8h-4.9v-3.1c-0.9,2.1-3.2,3.4-6.2,3.4c-5.4,0-8.6-4.2-8.6-9.3c0-5.3,3.3-9.2,8.8-9.2
		c2.2,0,4.6,1,5.9,3v0.1L372.3,310z M371.5,318.9c0-2.8-2-4.9-4.9-4.9c-2.9,0-5,2-5,4.9c0,2.9,2.1,4.9,5,4.9
		C369.5,323.8,371.5,321.8,371.5,318.9z"/>
</g>
<g>
	<g>
		<path class="st0" d="M39.4,280.8c-0.4-0.4-0.6-0.9-0.6-1.4v-52.6c0-0.6,0.2-1.1,0.6-1.5c0.4-0.4,0.9-0.6,1.4-0.6h24.7
			c6.8,0,11.9,1.4,15.2,4.2c3.3,2.8,5,6.7,5,11.9c0,2.7-0.7,5-2.1,6.8c-1.4,1.9-2.9,3.2-4.7,4.1c2.2,1,4.1,2.7,5.6,4.9
			c1.5,2.3,2.3,4.8,2.3,7.6c0,5.4-1.8,9.6-5.3,12.6c-3.6,3-8.6,4.5-15.2,4.5H40.8C40.3,281.5,39.8,281.2,39.4,280.8z M63.9,247.3
			c2.2,0,3.8-0.6,4.9-1.7c1.1-1.1,1.7-2.6,1.7-4.4c0-1.8-0.6-3.2-1.7-4.3c-1.1-1.1-2.8-1.6-4.9-1.6H53.4v12H63.9z M64.6,270.9
			c2.2,0,3.9-0.6,5.2-1.9c1.2-1.3,1.9-2.9,1.9-4.7c0-1.9-0.6-3.5-1.9-4.8c-1.2-1.3-3-1.9-5.2-1.9H53.4v13.4H64.6z"/>
		<path class="st0" d="M104.5,280.8c-0.4-0.4-0.6-0.9-0.6-1.4v-52.6c0-0.6,0.2-1.1,0.6-1.5c0.4-0.4,0.9-0.6,1.4-0.6h10.8
			c0.6,0,1.1,0.2,1.5,0.6c0.4,0.4,0.6,0.9,0.6,1.5v52.6c0,0.6-0.2,1.1-0.6,1.5c-0.4,0.4-0.9,0.6-1.5,0.6h-10.8
			C105.4,281.5,104.9,281.2,104.5,280.8z"/>
		<path class="st0" d="M138.8,280.8c-0.4-0.4-0.6-0.9-0.6-1.4v-52.6c0-0.6,0.2-1.1,0.6-1.5c0.4-0.4,0.9-0.6,1.4-0.6h22
			c7.1,0,12.6,1.6,16.5,4.8c4,3.2,5.9,7.8,5.9,13.6c0,3.8-0.9,7-2.7,9.6s-4.2,4.7-7.4,6.1l11.1,19.9c0.2,0.3,0.2,0.6,0.2,0.9
			c0,0.4-0.2,0.8-0.5,1.2c-0.4,0.4-0.7,0.5-1.2,0.5h-10.8c-1.6,0-2.7-0.7-3.3-2.2l-9.2-17.8h-8.3v18c0,0.6-0.2,1.1-0.6,1.5
			c-0.4,0.4-0.9,0.6-1.5,0.6h-10.4C139.7,281.5,139.2,281.2,138.8,280.8z M162.1,250c2.5,0,4.4-0.6,5.7-1.8c1.3-1.2,1.9-2.9,1.9-5.1
			c0-2.2-0.6-3.9-1.9-5.1c-1.3-1.3-3.2-1.9-5.7-1.9h-9.3V250H162.1z"/>
		<path class="st0" d="M210.1,280c-3.7-1.5-6.4-3.5-8.3-6c-1.9-2.5-2.8-5.1-3-8.1c0-0.4,0.2-0.8,0.5-1.2c0.3-0.3,0.8-0.5,1.3-0.5
			h10.2c0.6,0,1.2,0.1,1.6,0.4c0.4,0.2,0.8,0.6,1.3,1.1c0.7,1.4,1.8,2.6,3.4,3.5c1.6,0.9,3.6,1.4,6.2,1.4c3.1,0,5.4-0.5,7-1.5
			c1.6-1,2.4-2.3,2.4-4c0-1.2-0.4-2.2-1.3-2.9c-0.8-0.8-2.1-1.4-3.9-2s-4.4-1.3-7.9-2c-6.5-1.3-11.3-3.3-14.5-6
			c-3.2-2.6-4.8-6.4-4.8-11.2c0-3.3,0.9-6.2,2.8-8.8c1.8-2.6,4.5-4.6,7.8-6.1c3.4-1.5,7.4-2.2,11.9-2.2c4.7,0,8.8,0.8,12.2,2.4
			c3.5,1.6,6.1,3.7,7.9,6.1c1.8,2.5,2.8,4.9,2.9,7.2c0,0.5-0.2,0.9-0.5,1.2c-0.3,0.3-0.7,0.5-1.2,0.5h-10.7c-0.6,0-1.2-0.1-1.6-0.3
			c-0.4-0.2-0.8-0.6-1.1-1.1c-0.3-1.2-1.2-2.3-2.6-3.2c-1.4-0.9-3.2-1.3-5.3-1.3c-2.4,0-4.3,0.4-5.6,1.3c-1.3,0.9-1.9,2.1-1.9,3.8
			c0,1.1,0.4,2.1,1.1,2.8c0.7,0.8,1.9,1.4,3.6,2.1c1.6,0.6,4,1.3,7.1,1.9c5,0.9,9,2.1,12,3.4c3,1.4,5.2,3.2,6.6,5.3
			c1.4,2.2,2.1,4.9,2.1,8.2c0,3.6-1,6.8-3.1,9.4c-2.1,2.7-5,4.7-8.7,6.2c-3.7,1.4-7.9,2.1-12.7,2.1
			C218.2,282.3,213.8,281.5,210.1,280z"/>
		<path class="st0" d="M271.9,280c-3.7-1.5-6.4-3.5-8.3-6c-1.9-2.5-2.8-5.1-3-8.1c0-0.4,0.2-0.8,0.5-1.2c0.3-0.3,0.8-0.5,1.3-0.5
			h10.2c0.6,0,1.2,0.1,1.6,0.4c0.4,0.2,0.8,0.6,1.3,1.1c0.7,1.4,1.8,2.6,3.4,3.5c1.6,0.9,3.6,1.4,6.2,1.4c3.1,0,5.4-0.5,7-1.5
			c1.6-1,2.4-2.3,2.4-4c0-1.2-0.4-2.2-1.3-2.9c-0.8-0.8-2.1-1.4-3.9-2c-1.8-0.6-4.4-1.3-7.9-2c-6.5-1.3-11.3-3.3-14.5-6
			c-3.2-2.6-4.8-6.4-4.8-11.2c0-3.3,0.9-6.2,2.8-8.8s4.5-4.6,7.8-6.1c3.4-1.5,7.4-2.2,11.9-2.2c4.7,0,8.8,0.8,12.2,2.4
			c3.5,1.6,6.1,3.7,7.9,6.1c1.8,2.5,2.8,4.9,2.9,7.2c0,0.5-0.2,0.9-0.5,1.2c-0.3,0.3-0.7,0.5-1.2,0.5h-10.7c-0.6,0-1.2-0.1-1.6-0.3
			c-0.4-0.2-0.8-0.6-1.1-1.1c-0.3-1.2-1.2-2.3-2.6-3.2c-1.4-0.9-3.2-1.3-5.3-1.3c-2.4,0-4.3,0.4-5.6,1.3c-1.3,0.9-1.9,2.1-1.9,3.8
			c0,1.1,0.4,2.1,1.1,2.8c0.7,0.8,1.9,1.4,3.6,2.1c1.6,0.6,4,1.3,7.1,1.9c5,0.9,9,2.1,12,3.4c3,1.4,5.2,3.2,6.6,5.3
			c1.4,2.2,2.1,4.9,2.1,8.2c0,3.6-1,6.8-3.1,9.4c-2.1,2.7-5,4.7-8.7,6.2c-3.7,1.4-7.9,2.1-12.7,2.1
			C279.9,282.3,275.5,281.5,271.9,280z"/>
		<path class="st0" d="M320.4,280.9c-0.4-0.4-0.5-0.7-0.5-1.2c0-0.3,0-0.6,0.1-0.7l19-52c0.2-0.6,0.5-1.2,1.1-1.6
			c0.5-0.4,1.2-0.6,2.1-0.6h12c0.9,0,1.6,0.2,2.1,0.6c0.5,0.4,0.9,1,1.1,1.6l18.9,52l0.2,0.7c0,0.4-0.2,0.8-0.5,1.2
			c-0.4,0.4-0.8,0.5-1.3,0.5h-10c-1.3,0-2.2-0.6-2.6-1.7l-3.2-8.3h-21.6l-3.1,8.3c-0.4,1.1-1.3,1.7-2.7,1.7h-10
			C321.1,281.5,320.7,281.3,320.4,280.9z M355.6,259.8l-7.5-21.4l-7.5,21.4H355.6z"/>
	</g>
	<g>
		<g class="st1">
			<g>
				<path class="st2" d="M267,99.4c-0.6-0.7-1.6-0.9-2.4-0.4l-2.8,1.6l-6.9,4l-5.8,3.4l-6.6,3.8c-2.3-7.4-20.1-63.5-23.1-68.2
					c-3-4.8-10.8-5-11.7-5H247c0.3,0.8,0.5,1.2,0.5,1.2L267,99.4z"/>
			</g>
		</g>
		<g>
			<path class="st2" d="M247,38.6h-43.8c0,0,0,0-0.1,0c-0.9,0-8.7,0.2-11.7,5c-3.3,5.1-23.6,67.8-23.6,67.8h0l-6-3.5l-5.8-3.3
				l-6.7-3.9l-2.8-1.7c-1.2-0.7-2.6,0-2.9,1.2l-0.1,0l19.8-60.3c0,0,5.9-18.7,33.1-18.7h23.7c0,0,11.6-1.3,18.7,6.6
				c1.1,1.2,2,2.2,2.8,3.2c0,0,0,0,0,0c1.7,2,2.9,3.5,3.7,4.6C246.1,36.8,246.7,37.9,247,38.6z"/>
		</g>
		<g class="st3">
			<path class="st2" d="M205.5,133.3V205c-0.3,0-0.7-0.1-1-0.3l-60.1-34.9c-0.3-0.2-0.5-0.4-0.7-0.7l28-16.2l5.7-3.3L205.5,133.3z"
				/>
		</g>
		<g class="st4">
			<g>
				<path class="st2" d="M267.3,169.2c-0.2,0.3-0.4,0.5-0.7,0.7l-60.1,34.9c-0.3,0.2-0.6,0.3-1,0.3v-71.7h0l28.1,16.3l5.7,3.3
					L267.3,169.2z"/>
			</g>
		</g>
		<g>
			<path class="st2" d="M267.5,100.7C267.5,100.7,267.5,100.7,267.5,100.7v67.5c0,0.4-0.1,0.7-0.3,1l-28-16.2l-5.7-3.3l-28.1-16.3
				l1-0.6l36-20.9l6.6-3.8l5.8-3.4l6.9-4l2.8-1.6c0.9-0.5,1.9-0.3,2.4,0.4C267.3,99.7,267.5,100.2,267.5,100.7z"/>
		</g>
		<g class="st5">
			<path class="st2" d="M206.5,132.7l-1,0.6l-28.1,16.3l-5.7,3.3l-28,16.2c-0.2-0.3-0.3-0.6-0.3-1v-67.5c0,0,0,0,0-0.1c0,0,0,0,0,0
				c0-0.1,0-0.3,0.1-0.4c0.3-1.2,1.7-1.9,2.9-1.2l2.8,1.7l6.7,3.9l5.8,3.3l6,3.5h0l36.8,21.4c0.3,0.2,0.6,0.3,1,0.3
				C205.9,133,206.2,132.9,206.5,132.7z"/>
		</g>
	</g>
</g>
</svg>
